<?xml version="1.0" encoding="UTF-8" standalone="no"?>
<svg
   xmlns:dc="http://purl.org/dc/elements/1.1/"
   xmlns:cc="http://creativecommons.org/ns#"
   xmlns:rdf="http://www.w3.org/1999/02/22-rdf-syntax-ns#"
   xmlns:svg="http://www.w3.org/2000/svg"
   xmlns="http://www.w3.org/2000/svg"
   viewBox="0 0 623.62201 246.6142"
   id="svg40"
   height="246.6142"
   width="623.62201"
   version="1.1">
  <metadata
     id="metadata46">
    <rdf:RDF>
      <cc:Work
         rdf:about="">
        <dc:format>image/svg+xml</dc:format>
        <dc:type
           rdf:resource="http://purl.org/dc/dcmitype/StillImage" />
      </cc:Work>
    </rdf:RDF>
  </metadata>
  <defs
     id="defs44" />
  <path
     id="path2"
     style="fill:#000000;fill-rule:evenodd"
     d="m 88.5812,99.803 c -3.7825,2.2152 -18.632,2.4898 -23.3251,2.0584 C 57.8402,101.1797 51.6497,99.4635 45.3575,95.6916 34.011,88.8899 27.5708,75.0705 27.6059,61.3598 27.6864,29.9736 56.11,11.5407 85.964,19.5333 86.9494,21.7401 84.8354,30.9205 84.2339,33.9751 73.7364,31.7563 64.2098,29.5762 54.7782,36.4347 39.0885,47.8439 40.8289,89.4337 74.7715,88.1751 80.6591,87.9567 84.5721,86.3957 89.86,85.6776 89.7366,88.3344 89.4183,98.0606 88.5812,99.803 Z M 7.2551,110.6221 c 1.291,9.6919 13.498,7.6134 20.4897,7.6134 l 84.1372,-0.1002 c 9.7649,-1.318 7.6701,-13.4091 7.6701,-20.5004 L 119.451,13.4984 C 118.132,3.7352 106.043,5.8276 98.9514,5.8276 L 14.8148,5.9287 C 5.0499,7.2484 7.1442,19.3398 7.1442,26.4283 Z" />
  <path
     id="path4"
     style="fill:#000000;fill-rule:evenodd"
     d="m 159.5828,207.0807 c 6.2304,0.715 8.6118,3.8018 22.22,3.3447 6.1727,-0.2073 17.0641,-0.6687 15.3852,-9.5473 -1.1539,-6.1026 -8.635,-9.3256 -13.7976,-11.6598 -6.5344,-2.9544 -10.7532,-4.4078 -16.5872,-8.9448 -10.6639,-8.2931 -12.2112,-26.6725 -0.5386,-34.588 11.4904,-7.7919 29.9351,-7.0295 43.2324,-3.8777 l -2.2679,13.9466 c -3.4995,-0.716 -6.3843,-1.8971 -10.2352,-2.4509 -3.9394,-0.5666 -8.4673,-0.7781 -12.4217,-0.3503 -11.6945,1.2654 -12.0233,8.7648 -8.0574,13.1095 6.2024,6.7952 24.6761,8.4805 32.5004,19.4543 8.5089,11.934 5.8073,28.6912 -7.8615,34.9368 -11.4185,5.2173 -36.7258,4.9294 -44.5285,0.7583 z m -29.6195,24.9061 c 1.2909,9.6918 13.498,7.6133 20.4897,7.6133 l 84.137,-0.1002 c 9.7651,-1.3181 7.6703,-13.4091 7.6703,-20.5004 l -0.1011,-84.1365 c -1.319,-9.7632 -13.408,-7.6708 -20.4997,-7.6708 l -84.1365,0.1012 c -9.7649,1.3197 -7.6706,13.411 -7.6706,20.4994 z" />
  <path
     id="path6"
     style="fill:#df0522;fill-rule:evenodd"
     d="m 157.309,89.8831 c -7.8613,-0.7514 -18.8165,2.6842 -18.9285,-9.2587 -0.0763,-8.1266 -0.6454,-20.0308 0.0536,-27.7749 0.8739,-9.6835 13.1447,-7.4776 20.08,-7.4776 h 55.5322 c 7.1613,0 19.0751,-2.182 19.6626,7.9089 0.4836,8.3085 0.2087,19.3392 0.0205,27.7985 -0.2512,11.2999 -11.3402,8.0787 -18.9259,8.8038 -0.5989,4.0378 0.8875,15.8978 -0.7572,18.5244 -1.6713,0.7818 -54.3087,0.7825 -55.98,0.001 -1.645,-2.6282 -0.1581,-14.4867 -0.7573,-18.5255 z m 0.7178,-48.1702 c -1.3585,-2.2773 -0.5774,-12.8643 -0.5855,-16.1804 -0.008,-3.3634 -0.992,-5.4497 2.84,-5.5625 l 40.7675,0.2075 13.4566,13.4163 c 0.3241,2.3021 0.763,6.1513 -0.3997,8.2724 l -1.8829,0.1581 c -1.1885,-1.8157 -0.6875,-3.9133 -0.7854,-6.1202 l -12.3392,-0.3516 c -0.7013,-2.8928 -0.3642,-9.0963 -0.3117,-12.3828 l -38.1704,-0.0041 c 0.015,3.6873 0.8837,16.3882 -0.7515,18.9841 z m -28.0637,68.9092 c 1.2884,9.6913 13.5011,7.6134 20.4899,7.6134 l 84.1374,-0.1 c 9.7641,-1.3161 7.6699,-13.4119 7.6699,-20.5006 l -0.1008,-84.1368 c -1.3176,-9.762 -13.4111,-7.6705 -20.5,-7.6705 l -84.1368,0.1011 c -9.7639,1.3178 -7.6703,13.4137 -7.6703,20.4996 z" />
  <path
     id="path8"
     style="fill:#df0522;fill-rule:evenodd"
     d="m 7.4445,191.1606 c 2.0708,-0.6647 27.5381,-19.4496 31.8552,-22.3754 l 24.0157,-17.1795 c 9.7359,-7.0023 12.6272,-0.9029 16.4806,4.1294 l 28.4164,39.6443 c 2.4081,3.2902 8.7274,13.9674 11.5482,15.6157 -0.6209,-3.5374 -0.2085,-60.2827 -0.2085,-65.4415 0,-4.3926 1.0487,-11.3075 -1.8669,-14.7154 -3.7995,-4.4412 -6.7306,-3.6464 -12.464,-3.646 H 24.1621 c -4.6179,0 -10.3134,-1.0081 -13.8357,2.2946 -4.2104,3.9476 -3.1822,7.7122 -3.1822,13.3799 0,8.5006 -0.5553,45.0816 0.3003,48.2939 z" />
  <path
     id="path10"
     style="fill:#df0522;fill-rule:evenodd"
     d="m 89.8148,194.0357 c 1.1943,1.8025 0.8827,1.4734 0.8358,3.6974 -3.9246,3.5527 -36.5646,25.9749 -44.872,32.1591 -1.4845,1.1052 -6.61,5.2961 -7.508,1.2001 -0.6681,-3.0471 3.1274,-4.532 5.0358,-5.9579 l 19.6696,-13.945 c 4.1536,-2.8366 8.485,-6.3063 12.7462,-9.185 2.3185,-1.5662 4.1928,-3.0583 6.592,-4.613 2.5999,-1.6847 4.3196,-4.3413 7.5006,-3.3557 z m -5.8818,-3.9359 c -0.0888,0.0915 -5.9755,3.9049 -6.7596,4.4707 -9.2312,6.6608 -24.5335,18.0859 -33.2164,23.6585 -1.9195,1.232 -4.6027,3.2848 -6.4725,4.7008 -3.981,3.0153 -7.0649,-0.5159 -4.3286,-3.4231 2.4601,-2.6139 9.6772,-6.7237 13.0674,-9.3187 4.4086,-3.3748 8.946,-6.2099 13.3666,-9.5323 l 19.8154,-14.2121 c 4.8531,-3.5526 6.3973,1.7321 4.5277,3.6562 z m -56.5022,25.525 c -0.8654,-1.092 -1.3596,-1.3521 -1.6552,-2.9618 0.2882,-1.7443 21.9203,-16.5656 24.9584,-18.6252 l 19.0917,-13.6062 c 2.3577,-1.7113 4.2961,-3.7168 7.1815,-3.7433 3.2791,3.2922 0.9569,4.6112 -1.8345,6.4961 -2.1283,1.437 -4.6892,3.4894 -6.5569,4.6483 -4.4823,2.781 -8.8113,6.506 -13.2635,9.5495 -4.529,3.0958 -8.9966,6.1088 -13.3898,9.4251 -3.1218,2.3563 -10.7802,8.6137 -14.5317,8.8175 z m -7.5093,-9.8449 c 0.0685,-4.9093 5.0771,-5.8802 11.7348,-11.0723 8.0251,-6.2586 17.2042,-12.0434 25.5192,-18.3892 1.941,-1.4815 4.5947,-3.1826 6.6378,-4.5817 2.7492,-1.8826 4.1972,-3.7238 7.5761,-3.5418 1.8814,2.9524 2.1278,3.6324 -4.3355,7.7646 l -19.0815,13.5708 c -3.0532,2.2102 -24.5509,18.223 -26.5872,17.4413 z M 7.3906,198.6234 c -0.0291,6.1245 1.8492,4.5842 5.9545,11.4258 l 20.7387,29.5336 10.17,-0.092 c 1.4692,-3.4288 3.2409,-3.5786 5.9557,-5.6277 1.8339,-1.3842 4.6006,-3.5188 6.4934,-4.6541 1.111,-0.6663 2.4538,-1.6528 3.3988,-2.4819 L 89.401,205.9148 c 3.2626,-1.9075 3.2894,-3.7599 7.5374,-2.3302 0.2796,3.9267 -0.696,4.2003 -3.6273,6.1547 -1.9151,1.2769 -4.1973,3.1719 -6.0078,4.2634 l -29.8667,21.2464 c -1.5058,1.1071 -5.0523,3.0293 -5.6399,4.351 13.274,0 10.0806,-0.833 23.6039,-10.0871 0.6069,-0.4153 6.7562,-5.9465 8.146,-2.4527 1.3407,3.3703 -4.163,6.0071 -6.18,7.5081 -1.5653,1.1648 -5.6764,3.5666 -6.3451,5.0317 11.1014,0 22.2026,0 33.304,0 5.6967,0 9.2375,0.9839 13.153,-3.4048 3.086,-3.4591 2.0736,-9.6392 2.0736,-14.061 -0.3852,-1.7429 -1.8059,-2.7644 -3.0033,-4.5685 L 95.5104,187.9741 c -4.0208,-5.3059 -8.455,-11.501 -12.104,-16.9838 -3.7563,-5.6443 -8.1092,-11.0315 -12.0025,-16.6719 -3.1696,0.1768 -6.3787,3.5531 -8.9907,5.269 -2.5691,1.6878 -5.4294,3.7389 -7.8711,5.5818 -9.6997,7.3208 -21.5541,14.9932 -31.3945,22.3448 -2.6004,1.9427 -5.1494,3.7343 -7.8607,5.5594 -2.5567,1.7209 -5.1154,4.2267 -7.8963,5.55 z" />
  <path
     id="path12"
     style="fill:#000000;fill-rule:evenodd"
     d="m 368.5761,64.4947 c -1.1953,-12.9986 5.2048,-29.3735 21.6122,-31.5641 17.2827,-2.3073 28.5288,11.3333 29.7136,24.8248 1.1501,13.0967 -5.286,29.7055 -21.9273,31.6314 -17.209,1.9918 -28.161,-11.4346 -29.3985,-24.8921 z m 71.025,0.4477 c 2.689,-23.1391 -12.9503,-44.3844 -40.3719,-46.0192 -27.052,-1.6129 -47.6627,15.3045 -50.3266,38.0415 -2.7316,23.3161 12.6808,44.8046 40.5408,46.3937 27.3922,1.5624 47.4984,-15.5326 50.1577,-38.416 z" />
  <path
     id="path14"
     style="fill:#df0522;fill-rule:evenodd"
     d="m 499.2618,153.1084 c 10.273,-1.3038 26.4047,-2.8588 26.224,11.7037 -0.1987,16.016 -23.4915,13.7971 -25.4385,13.0116 z m -16.0551,-12.1087 c 0.9053,27.2279 0.8906,53.456 -0.007,80.6939 l 17.2623,-0.1162 -0.3419,-32.0513 c 10.5105,-0.2066 16.9468,-0.889 21.7955,9.5488 3.2015,6.8918 6.2323,15.1873 8.4304,22.6068 l 18.4941,-0.1855 c -3.4591,-9.0255 -10.7331,-30.5264 -18.9339,-36.6648 -1.4556,-1.0897 -3.8393,-1.6751 -4.7547,-3.0027 1.5288,-1.4565 6.8082,-3.1319 9.3184,-5.618 9.8023,-9.7081 8.9422,-23.6779 0.6395,-30.1655 -6.1236,-4.785 -16.1084,-5.4436 -23.6976,-5.4195 -9.3781,0.0297 -18.7991,0.31 -28.2054,0.374 z" />
  <path
     id="path16"
     style="fill:#df0522;fill-rule:evenodd"
     d="m 422.3619,186.685 c 1.7462,-5.793 3.841,-11.6178 5.7473,-17.3993 0.8689,-2.6347 4.7435,-16.4851 5.8265,-17.4666 0.5393,0.7859 9.8002,30.8505 11.0334,34.9217 z m -8.8059,34.7746 c 0.6145,-7.3727 3.7524,-15.7492 5.7561,-23.0227 l 28.8958,0.0223 c 1.8644,7.0675 5.014,15.8497 5.5953,23.2088 l 19.9657,-0.006 c -1.5161,-11.2819 -25.2572,-70.7007 -26.3053,-81.0663 l -23.3489,0.093 c -0.771,1.397 -2.5465,8.1861 -3.3521,10.5013 -5.44,15.6333 -12.8466,34.4871 -18.9225,50.0458 -2.0775,5.3198 -6.1351,15.1371 -7.0557,20.4653 z" />
  <path
     id="path18"
     style="fill:#df0522;fill-rule:evenodd"
     d="m 320.3768,140.8828 c -13.1327,-3.1328 -31.9141,-3.9121 -43.3251,4.0845 -11.432,8.0114 -9.6846,26.2464 0.8158,34.4107 11.6297,9.0423 28.9776,10.8238 30.4479,20.9582 1.2652,8.7226 -9.7742,9.0416 -15.889,9.2066 -13.3637,0.3604 -15.7841,-2.669 -21.7842,-3.3587 l -2.8253,14.1588 c 4.2674,2.3248 17.6247,3.1656 22.8097,3.1371 7.441,-0.0407 15.1677,-0.8764 21.8996,-4.0624 13.4274,-6.3549 15.9708,-22.9906 7.5534,-34.7964 -7.3382,-10.2923 -26.9366,-13.8433 -32.2806,-19.2221 -2.4001,-2.4158 -3.4928,-7.0113 -1.036,-9.8263 2.2425,-2.5696 5.9807,-3.2445 9.26,-3.5549 10.6381,-1.0068 14.2461,1.2024 22.2897,2.8441 z" />
  <path
     id="path20"
     style="fill:#df0522;fill-rule:evenodd"
     d="m 149.0073,52.2016 c 7.5148,-2.8337 12.3676,9.1574 3.7087,11.9159 -7.2776,2.3185 -11.4204,-9.008 -3.7087,-11.9159 z m 8.4519,34.4151 c -0.0377,-2.7767 -0.895,-10.7659 0.9642,-12.4568 l 55.2658,-0.2194 c 1.86,1.9221 1.0019,9.8949 0.9641,12.6762 2.8328,0 10.0375,0.3503 12.3755,-0.1183 4.1603,-0.8342 3.5355,-5.3246 3.5333,-8.5686 -0.005,-7.8836 0.4168,-16.9141 2e-4,-24.6511 -0.2523,-4.6834 -3.2858,-4.7483 -7.1088,-4.7361 l -73.8964,10e-4 c -11.2092,-0.0153 -8.0035,3.4299 -8.006,28.9384 -0.001,10.7762 0.7307,9.1347 15.9081,9.1347 z" />
  <path
     id="path22"
     style="fill:#000000;fill-rule:evenodd"
     d="m 474.5132,33.1616 c 12.2216,-1.4401 31.143,-2.4147 31.0606,12.525 -0.0338,6.1376 -3.6561,9.8982 -9.8593,12.1649 -4.6001,1.6809 -15.599,2.7937 -20.3234,1.8703 z M 455.9654,20.9895 c 0.9372,27.3552 0.911,53.3367 -0.006,80.7018 l 20.0887,0.003 -0.7092,-30.568 c 12.2144,0.3763 25.6229,-0.8852 35.9209,-6.9345 17.859,-10.491 21.0145,-39.3158 -12.5006,-43.2001 -5.905,-0.6842 -34.693,-0.1107 -42.7937,-0.0025 z" />
  <path
     id="path24"
     style="fill:#000000;fill-rule:evenodd"
     d="m 332.8238,35.3187 c 0.6965,-3.0726 3.1247,-12.2068 1.9913,-14.4419 -34.5599,-7.9751 -67.3958,10.5915 -67.166,42.2743 0.0985,13.5884 7.6837,27.4745 20.7583,34.0501 7.4438,3.7437 14.3507,5.3984 22.9898,6.0363 4.7713,0.3523 23.1283,0.2196 26.3115,-2.1912 1.1324,-1.3031 1.4543,-11.4837 1.5905,-14.0251 -6.3253,0.7461 -10.8293,2.3441 -17.8843,2.5118 -38.4801,0.9143 -40.5269,-40.3606 -22.4928,-51.7548 10.8552,-6.8584 21.8197,-4.6784 33.9017,-2.4595 z" />
  <path
     id="path26"
     style="fill:#000000;fill-rule:evenodd"
     d="m 576.568,101.6654 c -0.3786,-8.9096 -1.02,-17.977 -0.8492,-26.8901 0.2905,-15.1551 29.2621,-43.4772 31.6186,-54.1915 l -20.2555,0.1956 c -0.7847,5.3705 -6.1387,15.3229 -9.0454,20.3848 -1.7887,3.1146 -3.4537,6.3103 -4.9982,9.5186 -1.5946,3.3122 -3.3018,9.4673 -4.2139,10.2684 -0.5737,-0.8689 -2.9768,-8.579 -4.0404,-10.8595 -1.5284,-3.2773 -3.2069,-6.4378 -4.8579,-9.6723 -2.7084,-5.3056 -8.4223,-14.4823 -9.4642,-19.841 h -22.5784 c 2.5975,11.0119 29.203,37.6531 29.0842,55.112 -0.0593,8.7314 -0.4644,17.2914 -0.7713,26.0049 z" />
  <path
     id="path28"
     style="fill:#df0522;fill-rule:evenodd"
     d="m 395.3391,140.6014 -63.9052,0.0517 -0.4845,13.8774 24.0861,-0.8353 c 0.8335,22.5078 0.0947,45.5003 -0.5207,68.0228 l 17.4512,-0.0315 c -0.5388,-22.6618 -0.9225,-45.2129 -0.5425,-67.8863 6.2899,-0.9258 16.736,0.645 23.4972,0.7008 z" />
  <path
     id="path30"
     style="fill:#df0522;fill-rule:evenodd"
     d="m 616.1243,140.6014 -63.9054,0.0517 -0.4844,13.8774 24.0861,-0.8353 c 0.8327,22.4847 0.1093,45.4936 -0.5354,67.9912 l 17.4659,1e-4 c -0.5388,-22.6618 -0.9226,-45.2129 -0.5425,-67.8863 6.2898,-0.9258 16.7361,0.645 23.4973,0.7008 z" />
  <path
     id="path32"
     style="fill:#df0522;fill-rule:evenodd"
     d="m 204.549,98.8544 c -0.9897,0.9096 -25.7754,0.4592 -30.3605,0.4598 -1.2384,2e-4 -9.5181,0.714 -6.667,-2.3798 1.6259,-1.7643 7.3131,-0.7917 9.8019,-0.7917 3.4334,0 6.8669,0 10.3003,0 3.521,0 21.232,-1.2461 16.9253,2.7117 z m 0.5574,-7.4893 c -1.1552,2.7457 -6.3573,1.6041 -8.9737,1.6041 h -20.6006 c -2.5562,0 -7.4137,1.0912 -8.5312,-1.6041 1.1942,-2.7036 6.385,-1.5708 8.9789,-1.5712 l 20.6008,-5e-4 c 2.5689,-7e-4 7.3315,-1.0765 8.5258,1.5717 z m -0.0659,-6.2922 c -0.0876,2.6016 -7.0705,1.5445 -8.9078,1.5445 l -20.6006,2e-4 c -2.5645,-6e-4 -8.0344,1.2104 -8.4973,-1.9986 1.2575,-1.9555 6.5681,-1.1741 8.945,-1.1741 h 20.6008 c 1.7738,0 8.5444,-0.881 8.4599,1.628 z m -44.4168,20.5784 50.8007,-5e-4 0.0606,-28.5419 h -50.7658 z" />
  <path
     id="path34"
     style="fill:#df0522;fill-rule:evenodd"
     d="m 7.2351,212.1645 c -0.2684,4.137 -0.7344,19.3829 0.851,22.4404 3.4516,6.6563 11.8521,4.9952 18.529,4.9952 -0.4798,-1.8783 -17.0462,-25.0021 -19.38,-27.4356 z" />
  <path
     id="path36"
     style="fill:#df0522;fill-rule:evenodd"
     d="m 152.8557,55.1155 c -4.6127,-0.6503 -6.5786,2.842 -4.1479,5.3051 2.6295,2.6649 7.006,-0.8799 5.2878,-4.132 z" />
  <path
     id="path38"
     style="fill:#df0522;fill-rule:evenodd"
     d="m 201.9886,32.682 7.0962,-0.1354 -7.111,-6.9074 z" />
</svg>
